<?xml version="1.0" standalone="no"?>
<!DOCTYPE svg PUBLIC "-//W3C//DTD SVG 20010904//EN"
 "http://www.w3.org/TR/2001/REC-SVG-20010904/DTD/svg10.dtd">
<svg version="1.0" xmlns="http://www.w3.org/2000/svg"
 width="420.000000pt" height="420.000000pt" viewBox="0 0 420.000000 420.000000"
 preserveAspectRatio="xMidYMid meet">
<metadata>
Created by potrace 1.11, written by Peter Selinger 2001-2013
</metadata>
<g transform="translate(0.000000,420.000000) scale(0.100000,-0.100000)"
fill="#000000" stroke="none">
<path d="M1250 4175 c0 -23 -3 -25 -50 -25 -47 0 -50 -2 -50 -25 0 -23 -3 -25
-50 -25 -47 0 -50 -2 -50 -25 0 -20 -5 -25 -25 -25 -20 0 -25 -5 -25 -25 0
-20 -5 -25 -25 -25 -20 0 -25 -5 -25 -25 0 -20 -5 -25 -25 -25 -20 0 -25 -5
-25 -25 0 -20 -5 -25 -25 -25 -23 0 -25 -3 -25 -50 0 -47 -2 -50 -25 -50 -23
0 -25 -3 -25 -49 0 -44 -3 -50 -22 -53 -20 -3 -23 -10 -26 -50 -3 -43 -5 -48
-28 -48 -23 0 -24 -2 -24 -74 0 -70 -1 -75 -22 -78 -20 -3 -23 -10 -26 -50 -3
-43 -5 -48 -28 -48 -22 0 -24 -4 -24 -50 0 -47 -2 -50 -25 -50 -23 0 -25 -3
-25 -50 0 -47 -2 -50 -25 -50 -23 0 -25 -3 -25 -50 0 -47 -2 -50 -25 -50 -23
0 -25 -3 -25 -50 0 -47 -2 -50 -25 -50 -23 0 -25 -3 -25 -50 0 -47 -2 -50 -25
-50 -23 0 -25 -3 -25 -50 0 -47 -2 -50 -25 -50 -23 0 -25 -3 -25 -50 0 -47 -2
-50 -25 -50 -23 0 -25 -3 -25 -50 0 -47 -2 -50 -25 -50 -23 0 -25 -3 -25 -50
0 -47 -2 -50 -25 -50 -23 0 -25 -3 -25 -50 0 -47 -2 -50 -25 -50 -23 0 -25 -3
-25 -50 0 -47 -2 -50 -25 -50 -23 0 -25 -3 -25 -50 0 -47 -2 -50 -25 -50 l-25
0 0 -675 0 -675 24 0 c23 0 25 -5 28 -48 3 -40 6 -47 26 -50 16 -3 22 -10 22
-28 0 -19 5 -24 25 -24 l25 0 0 175 0 175 25 0 25 0 0 100 0 100 25 0 c20 0
25 -5 25 -25 0 -20 5 -25 25 -25 23 0 25 -3 25 -50 0 -47 2 -50 25 -50 20 0
25 -5 25 -25 0 -20 5 -25 25 -25 23 0 25 -3 25 -50 0 -47 2 -50 25 -50 20 0
25 -5 25 -25 0 -20 5 -25 25 -25 20 0 25 -5 25 -25 0 -23 3 -25 50 -25 47 0
50 -2 50 -25 0 -23 3 -25 50 -25 47 0 50 -2 50 -25 0 -20 5 -25 25 -25 l25 0
0 -325 0 -325 25 0 c20 0 25 -5 25 -25 l0 -25 1700 0 1700 0 0 700 0 700 -25
0 -25 0 0 125 0 125 -25 0 -25 0 0 150 0 150 25 0 c20 0 25 -5 25 -25 0 -20 5
-25 25 -25 l25 0 0 600 0 600 -24 0 c-18 0 -25 6 -28 23 -2 14 -11 23 -25 25
-17 3 -23 10 -23 28 0 19 -5 24 -24 24 -18 0 -25 6 -28 23 -2 14 -11 23 -25
25 -20 3 -23 9 -23 53 0 46 -2 49 -25 49 -20 0 -25 5 -25 25 0 20 -5 25 -25
25 -20 0 -25 5 -25 25 0 20 -5 25 -25 25 -23 0 -25 3 -25 50 0 46 -2 50 -24
50 -18 0 -25 6 -28 23 -2 14 -11 23 -25 25 -20 3 -23 9 -23 53 0 46 -2 49 -25
49 -23 0 -25 3 -25 50 0 47 -2 50 -25 50 -23 0 -25 3 -25 50 0 47 -2 50 -25
50 -20 0 -25 5 -25 25 0 23 -3 25 -50 25 -47 0 -50 2 -50 25 0 23 -3 25 -50
25 -47 0 -50 2 -50 25 0 23 -3 25 -50 25 -47 0 -50 2 -50 25 0 24 -2 25 -75
25 -73 0 -75 1 -75 25 0 24 -2 25 -75 25 -76 0 -82 4 -76 42 0 4 -235 8 -524
7 l-525 0 0 -24 0 -25 -200 0 -200 0 0 25 0 24 -150 0 -150 1 0 -25z"/>
</g>
</svg>
